<svg id="Layer_1" enable-background="new 0 0 512 512" height="512" viewBox="0 0 512 512" width="512" xmlns="http://www.w3.org/2000/svg"><g><path d="m304.199 143.534c-8.284 0-15-6.716-15-15v-49.267h-66.399v49.267c0 8.284-6.716 15-15 15s-15-6.716-15-15v-64.267c0-8.284 6.716-15 15-15h96.399c8.284 0 15 6.716 15 15v64.267c0 8.284-6.716 15-15 15z" fill="#08475e"/><path d="m289.199 128.534c0 8.284 6.716 15 15 15s15-6.716 15-15v-64.267c0-8.284-6.716-15-15-15h-48.199v30h33.2v49.267z" fill="#05303d"/><path d="m415.6 192.8-79.267-79.267h-160.667l-79.267 79.267v64.267l47.134 79.267c0 8.284 6.716 15 15 15h194.933c8.284 0 15-6.716 15-15l47.134-79.267z" fill="#ffd700"/><path d="m256 113.534v237.8h97.466c8.284 0 15-6.716 15-15l47.134-79.267v-64.267l-79.267-79.267h-80.333z" fill="#ffaf00"/><path d="m175.666 145.667v-32.133h-32.133c-25.989 0-47.134 21.144-47.134 47.133v32.133h32.134c25.989 0 47.133-21.144 47.133-47.133z" fill="#ffaf00"/><path d="m336.333 145.667v-32.133h32.133c25.989 0 47.134 21.144 47.134 47.133v32.133h-32.134c-25.989 0-47.133-21.144-47.133-47.133z" fill="#ff8700"/><path d="m128.533 257.067h-32.134v32.133c0 25.989 21.145 47.133 47.134 47.133 0 8.284 6.716 15 15 15h17.133v-47.133c0-25.989-21.144-47.133-47.133-47.133z" fill="#ffaf00"/><path d="m383.466 257.067h32.134v32.133c0 25.989-21.145 47.133-47.134 47.133 0 8.284-6.716 15-15 15h-17.133v-47.133c0-25.989 21.144-47.133 47.133-47.133z" fill="#ff8700"/><path d="m448.8 462.733h-385.6c-34.849 0-63.2-28.352-63.2-63.2s28.352-63.2 63.2-63.2h385.6c34.849 0 63.2 28.351 63.2 63.2s-28.352 63.2-63.2 63.2z" fill="#08475e"/><path d="m512 399.533c0-34.849-28.352-63.2-63.2-63.2h-192.8v126.4h192.8c34.848 0 63.2-28.351 63.2-63.2z" fill="#05303d"/><path d="m63.2 366.333h385.6v66.4h-385.6z" fill="#dad0cb"/><path d="m256 366.333h192.8v66.4h-192.8z" fill="#d0c8c3"/><circle cx="63.2" cy="399.533" fill="#f4f1f1" r="33.2"/><circle cx="448.8" cy="399.533" fill="#e7dfdd" r="33.2"/></g></svg>